<?xml version="1.0" standalone="no"?>
<!DOCTYPE svg PUBLIC "-//W3C//DTD SVG 20010904//EN"
 "http://www.w3.org/TR/2001/REC-SVG-20010904/DTD/svg10.dtd">
<svg version="1.0" xmlns="http://www.w3.org/2000/svg"
 width="1072.000000pt" height="1226.000000pt" viewBox="0 0 1072.000000 1226.000000"
 preserveAspectRatio="xMidYMid meet">

<g transform="translate(0.000000,1226.000000) scale(0.100000,-0.100000)"
fill="#000000" stroke="none">
<path d="M990 11970 c-110 -14 -299 -87 -285 -110 6 -9 -34 -36 -47 -32 -5 1
-8 -2 -8 -8 0 -5 -6 -7 -14 -4 -12 5 -30 -10 -31 -26 -1 -18 -95 -111 -105
-105 -4 3 -14 -3 -21 -12 -11 -12 -11 -17 -2 -20 8 -3 2 -19 -20 -46 -17 -23
-35 -44 -40 -45 -4 -2 -5 -8 -1 -13 3 -5 0 -8 -7 -7 -28 6 -101 -183 -120
-313 -10 -66 -11 -873 -6 -3749 9 -4745 12 -5653 19 -5721 8 -67 32 -173 49
-214 7 -16 12 -33 11 -37 -1 -5 6 -8 15 -8 15 0 16 -2 3 -10 -8 -5 -10 -10 -5
-10 6 0 11 -9 12 -19 3 -37 91 -199 151 -278 32 -43 88 -103 122 -133 77 -67
171 -131 182 -124 4 3 8 1 8 -5 0 -13 107 -63 195 -92 63 -20 98 -23 335 -28
l265 -6 5 -273 c5 -273 5 -274 29 -293 13 -10 38 -19 56 -19 35 0 69 25 295
215 47 39 91 75 98 79 7 4 37 -15 78 -51 37 -32 105 -92 153 -134 47 -41 97
-83 111 -92 36 -25 92 -22 119 7 20 22 22 33 23 184 1 89 -1 164 -5 168 -3 3
-2 17 3 30 6 14 6 26 0 29 -5 3 -6 15 -1 28 5 12 5 31 1 42 -4 11 -3 28 2 38
5 9 6 17 2 17 -3 0 -1 7 6 15 11 13 356 15 2999 15 3170 0 3060 -2 3191 44
232 82 425 283 502 521 50 158 51 184 52 1182 1 978 3 1012 42 917 9 -21 27
-63 40 -92 13 -29 24 -56 24 -61 0 -5 7 -11 15 -15 8 -3 12 -12 9 -20 -3 -7
12 -47 32 -87 21 -41 37 -77 36 -81 -1 -5 6 -8 15 -8 15 0 16 -2 3 -10 -11 -7
-11 -10 -2 -10 7 0 10 -5 7 -10 -3 -5 2 -10 12 -11 10 0 13 -3 6 -6 -17 -6 28
-96 59 -117 25 -18 90 -21 117 -6 23 12 52 67 137 258 36 81 84 179 105 219
47 85 129 270 129 290 0 8 4 12 8 9 5 -3 14 12 22 32 7 20 41 100 75 177 l61
140 -1 2725 c-2 2016 -5 2737 -13 2772 -19 75 -60 161 -73 152 -8 -4 -9 -3 -5
5 9 15 -21 64 -34 56 -6 -3 -7 1 -4 9 4 11 0 16 -11 16 -9 0 -14 4 -11 9 8 13
-31 44 -45 35 -7 -4 -10 -3 -5 4 8 14 -40 48 -117 80 -55 23 -79 26 -208 30
-176 5 -264 -7 -343 -48 -46 -23 -62 -27 -68 -18 -5 7 -6 294 -2 638 6 688 3
743 -48 898 -32 98 -117 249 -137 244 -6 -1 -10 4 -9 10 2 7 -3 12 -10 10 -6
-1 -11 4 -10 10 2 7 -3 12 -10 10 -7 -1 -24 9 -38 23 -21 21 -22 25 -7 25 15
0 15 2 3 9 -8 6 -18 7 -22 5 -5 -3 -7 0 -6 8 2 7 -3 12 -10 10 -8 -1 -11 2 -8
7 9 14 -60 64 -75 55 -8 -4 -9 -3 -5 4 4 7 -20 25 -63 47 -73 36 -97 43 -85
23 4 -7 3 -8 -5 -4 -6 4 -9 11 -6 16 6 10 -43 23 -57 14 -6 -4 -8 -3 -5 3 4 6
-5 14 -21 19 -33 10 -7676 14 -7752 4z m-245 -100 c-3 -5 -11 -10 -16 -10 -6
0 -7 5 -4 10 3 6 11 10 16 10 6 0 7 -4 4 -10z m8200 0 c3 -5 1 -10 -4 -10 -6
0 -11 5 -11 10 0 6 2 10 4 10 3 0 8 -4 11 -10z m-7165 -117 c1 -13 1 -9115 1
-9330 l-1 -201 -317 -4 -318 -4 -90 -31 c-203 -70 -334 -184 -429 -370 -20
-39 -43 -102 -52 -142 -9 -39 -20 -71 -24 -71 -12 0 -42 144 -49 233 -4 43 -6
1177 -5 2520 0 1536 -3 2447 -9 2455 -5 6 -6 12 -1 12 5 0 9 928 8 2139 0
1176 3 2176 8 2220 4 45 19 114 32 153 14 39 22 76 19 81 -3 6 -1 7 4 4 14 -9
24 17 17 41 -5 14 -4 15 5 2 9 -13 11 -13 12 0 1 8 1 21 0 28 -1 7 5 19 14 28
11 12 15 12 15 2 1 -7 12 0 25 16 13 17 21 34 19 38 -3 5 -2 7 3 6 16 -5 95
70 87 83 -5 9 -2 10 9 6 9 -3 53 11 103 34 47 23 107 44 133 49 59 10 781 12
781 3z m5761 -845 c1 -469 1 -857 0 -862 -1 -5 4 -13 11 -17 10 -7 10 -9 1 -9
-8 0 -13 -14 -13 -35 0 -21 5 -35 13 -36 9 0 9 -2 0 -6 -17 -6 -17 -43 0 -44
9 0 9 -2 0 -6 -17 -6 -17 -33 0 -33 8 0 7 -4 -3 -11 -12 -9 -13 -12 -1 -16 11
-5 11 -7 0 -14 -12 -8 -11 -11 1 -19 8 -5 10 -10 4 -10 -6 0 -11 -11 -11 -25
0 -14 5 -25 11 -25 7 0 8 -3 1 -8 -14 -9 -14 -152 0 -152 5 0 3 -5 -5 -10 -13
-9 -13 -11 0 -20 12 -8 12 -10 1 -10 -11 0 -11 -3 -1 -15 10 -12 10 -15 -1
-15 -11 0 -11 -2 1 -10 12 -8 12 -10 1 -10 -11 0 -11 -3 -1 -15 10 -12 10 -15
-1 -15 -11 0 -11 -2 1 -10 12 -8 12 -10 1 -10 -10 0 -11 -3 -2 -14 9 -11 9
-15 -1 -19 -10 -4 -10 -8 2 -16 12 -8 12 -11 1 -11 -11 0 -11 -3 -1 -15 7 -8
8 -15 3 -15 -5 0 -9 -9 -9 -20 0 -11 4 -20 8 -20 5 0 5 -8 0 -17 -11 -21 -12
-643 -2 -643 8 0 6 -32 -3 -47 -4 -6 -1 -14 5 -17 10 -5 10 -7 -1 -12 -11 -5
-11 -8 0 -15 12 -8 11 -11 -1 -19 -11 -7 -11 -10 -2 -10 10 0 10 -5 2 -20 -6
-11 -7 -20 -2 -20 10 0 9 -30 -2 -48 -4 -7 -2 -12 6 -12 9 0 9 -3 -2 -10 -13
-9 -13 -11 0 -20 12 -8 12 -10 1 -10 -11 0 -11 -3 -1 -15 7 -8 9 -15 4 -15 -5
0 -9 -11 -9 -25 0 -14 4 -25 10 -25 5 0 4 -5 -3 -12 -8 -8 -9 -15 -1 -25 9
-10 8 -13 -2 -13 -11 0 -11 -2 1 -10 13 -9 13 -11 0 -20 -12 -8 -12 -10 -1
-10 11 0 11 -3 1 -15 -7 -8 -8 -15 -3 -15 5 0 9 -22 9 -50 0 -27 -4 -50 -9
-50 -5 0 -4 -7 3 -15 10 -12 10 -15 0 -15 -10 0 -10 -3 -1 -14 9 -11 9 -15 -1
-20 -10 -5 -10 -7 1 -12 11 -5 11 -8 0 -15 -12 -8 -11 -11 1 -19 8 -5 10 -10
4 -10 -15 0 -16 -310 0 -310 8 0 8 -2 0 -8 -6 -4 -11 -16 -11 -27 0 -11 5 -23
11 -27 8 -5 7 -8 -1 -8 -7 0 -13 -9 -13 -20 0 -11 6 -20 13 -20 8 0 7 -4 -3
-10 -12 -8 -12 -10 -1 -10 11 0 11 -3 0 -16 -10 -12 -10 -20 -1 -34 7 -12 8
-21 2 -25 -15 -9 -12 -27 3 -19 9 5 9 4 0 -6 -10 -11 -10 -17 0 -29 7 -8 7
-12 1 -8 -13 8 -14 -510 -1 -530 5 -8 4 -13 -2 -13 -6 0 -8 -7 -5 -14 8 -21
10 -1206 2 -1206 -8 0 -10 -589 -2 -602 4 -6 6 -144 4 -307 -1 -163 -2 -429
-1 -591 0 -162 0 -450 -1 -640 0 -190 0 -553 1 -807 l2 -463 -2770 0 c-1554 0
-2772 4 -2775 9 -4 6 -7 1010 -5 1586 2 449 -2 605 -13 605 -10 0 -10 2 -1 8
10 6 12 346 12 1537 0 842 1 2490 1 3663 l0 2132 2770 0 2770 0 1 -852z m539
-1015 c0 -1028 0 -3444 0 -5371 0 -1927 -2 -3507 -4 -3511 -4 -5 -215 -7 -304
-2 -10 1 -13 134 -12 704 1 536 2 1695 2 2117 -3 3077 1 7892 6 7913 4 15 20
17 158 17 l154 0 0 -1867z m665 1834 c44 -15 105 -42 135 -61 30 -19 59 -32
64 -29 5 3 6 2 3 -4 -3 -5 10 -25 29 -44 78 -75 144 -215 168 -354 18 -104 17
170 10 -3819 -4 -2214 -3 -2711 8 -2717 9 -6 9 -9 1 -9 -9 0 -11 -220 -10
-932 2 -1060 8 -982 -84 -1177 -41 -86 -61 -115 -117 -170 -37 -36 -103 -86
-147 -111 -113 -64 -180 -79 -357 -79 l-148 -1 -1 188 c-1 190 0 9344 1 9351
0 2 82 1 183 -1 161 -5 191 -8 262 -31z m-7865 3 c0 -5 -5 -10 -11 -10 -5 0
-7 5 -4 10 3 6 8 10 11 10 2 0 4 -4 4 -10z m8440 -310 c0 -5 -2 -10 -4 -10 -3
0 -8 5 -11 10 -3 6 -1 10 4 10 6 0 11 -4 11 -10z m10 -30 c0 -5 -2 -10 -4 -10
-3 0 -8 5 -11 10 -3 6 -1 10 4 10 6 0 11 -4 11 -10z m10 -35 c0 -8 -2 -15 -4
-15 -2 0 -6 7 -10 15 -3 8 -1 15 4 15 6 0 10 -7 10 -15z m4 -41 c3 -8 2 -12
-4 -9 -6 3 -10 10 -10 16 0 14 7 11 14 -7z m-1787 -206 c-3 -8 -6 -5 -6 6 -1
11 2 17 5 13 3 -3 4 -12 1 -19z m2337 -1387 c-8 -8 48 -31 60 -24 6 3 8 3 4
-2 -4 -4 12 -30 37 -57 70 -78 85 -131 85 -308 l0 -150 -348 0 c-192 0 -351 2
-353 4 -3 4 8 283 13 339 1 9 6 17 10 17 4 0 5 8 1 18 -3 9 -3 14 2 10 4 -4
21 13 36 37 16 25 49 58 74 74 24 15 41 32 37 36 -4 5 -2 5 4 2 5 -3 32 -2 60
2 48 8 286 10 278 2z m99 -770 l87 -1 0 -105 0 -105 -352 2 -353 3 -3 102 -3
103 243 2 c134 2 254 2 268 1 14 -1 64 -2 113 -2z m-388 -2473 c-2 -1113 -4
-2030 -4 -2038 -1 -9 -17 -24 -36 -34 -19 -10 -32 -23 -29 -28 3 -5 0 -8 -7
-7 -22 5 -81 -30 -73 -43 4 -6 1 -9 -7 -6 -8 3 -26 -4 -41 -14 l-28 -19 -1 63
c-1 102 -1 4111 0 4131 1 15 13 17 115 17 l114 0 -3 -2022z m475 -78 c0 -1499
-3 -2100 -11 -2100 -6 0 -38 16 -71 35 -33 19 -64 32 -70 29 -7 -4 -8 -2 -4 4
4 7 2 12 -3 12 -6 0 -11 -6 -12 -12 0 -10 -2 -10 -6 0 -2 6 -9 10 -14 6 -5 -3
-9 0 -9 5 0 6 6 11 13 12 9 0 9 2 0 6 -7 2 -16 5 -20 5 -36 3 -36 -14 -35
1841 0 991 1 1904 1 2030 l1 227 120 0 120 0 0 -2100z m-327 -2194 c-4 -6 1
-7 13 -2 10 4 15 4 11 0 -3 -4 35 -32 86 -63 194 -119 187 -113 167 -151 -6
-10 -11 -30 -12 -44 -1 -15 -6 -26 -10 -26 -4 0 -5 -15 -3 -32 4 -24 3 -27 -3
-14 -10 23 -21 10 -24 -27 -1 -14 -7 -23 -12 -20 -5 4 -7 -1 -3 -11 4 -9 3
-15 -1 -12 -11 7 -124 -222 -117 -234 4 -6 2 -10 -3 -10 -14 0 -22 -38 -8 -43
6 -2 -1 -4 -16 -4 -15 0 -25 3 -23 8 3 4 -21 7 -52 7 -109 -2 -107 -3 -133 52
-13 27 -28 46 -33 43 -6 -3 -7 -1 -3 5 11 18 -117 269 -133 264 -10 -3 -12 2
-8 18 6 22 -10 70 -23 70 -6 0 -7 42 -2 61 1 3 20 13 42 23 22 10 40 22 40 27
0 6 4 8 9 4 5 -3 17 5 25 17 9 12 16 18 16 13 0 -6 3 -6 8 0 4 6 28 21 55 34
26 13 47 28 47 33 0 5 4 7 9 4 5 -3 14 1 21 9 14 17 83 18 73 1z m117 -1066
c0 -5 -2 -10 -4 -10 -3 0 -8 5 -11 10 -3 6 -1 10 4 10 6 0 11 -4 11 -10z
m-733 -918 c-7 -67 -55 -218 -91 -290 -67 -133 -247 -266 -406 -302 -25 -5
-111 -10 -192 -10 l-148 0 0 189 0 189 158 5 c86 3 173 8 192 12 138 25 340
129 435 223 22 22 44 40 49 41 5 1 6 -25 3 -57z m-1588 -397 c0 -96 -2 -182
-5 -190 -5 -13 -362 -15 -3039 -15 l-3032 0 -27 -21 c-14 -11 -31 -30 -37 -41
-10 -18 -9 -20 7 -14 18 6 18 5 2 -8 -22 -16 -22 -29 -3 -66 24 -47 83 -68
193 -69 l32 -1 0 -195 0 -195 -42 0 c-259 -3 -398 1 -446 11 -161 33 -302 161
-355 322 -27 83 -28 239 -3 316 23 68 87 166 140 213 46 42 139 95 200 114 33
10 682 13 3227 13 l3187 1 1 -175z m1601 -172 c-1 -82 -19 -182 -46 -252 -60
-150 -153 -252 -301 -329 -41 -21 -73 -44 -73 -52 0 -10 -3 -11 -8 -3 -5 8
-21 9 -57 2 -53 -11 -349 -14 -364 -4 -7 4 -9 314 -2 380 1 6 37 9 93 7 121
-5 284 14 378 44 109 34 319 171 303 197 -3 5 -2 8 3 4 5 -3 21 7 34 23 14 16
28 29 33 29 4 1 7 -20 7 -46z m-1403 -115 c-3 -7 -5 -2 -5 12 0 14 2 19 5 13
2 -7 2 -19 0 -25z m-5307 -589 c0 -353 -3 -449 -12 -449 -7 0 -33 19 -58 43
-90 84 -202 169 -216 163 -9 -3 -12 -1 -9 4 3 6 -5 10 -19 10 -13 0 -48 -18
-78 -42 -67 -52 -202 -170 -206 -180 -18 -40 -22 46 -22 447 l0 455 298 2
c163 2 303 1 310 -1 9 -2 12 -101 12 -452z m5105 256 l0 -196 -2459 0 c-1352
0 -2460 2 -2462 4 -2 2 -6 318 -4 374 0 17 265 18 2845 17 l2080 -2 0 -197z"/>
<path d="M5027 11077 c-3 -17 -29 -138 -56 -267 -47 -219 -89 -416 -147 -685
-12 -60 -44 -204 -69 -319 -25 -115 -51 -234 -57 -265 -5 -31 -12 -59 -14 -63
-3 -4 -20 2 -39 13 -19 11 -40 17 -46 13 -8 -5 -9 -3 -5 5 5 8 0 14 -13 18
-12 3 -21 9 -21 14 0 5 -9 9 -21 9 -11 0 -17 4 -14 10 3 5 -18 21 -47 36 -29
15 -88 47 -131 71 -42 25 -84 42 -92 39 -8 -3 -14 0 -12 7 1 7 -6 11 -16 9
-21 -4 -49 16 -41 29 3 5 -2 10 -10 10 -9 1 -22 2 -28 3 -7 0 -13 8 -13 16 0
8 -9 16 -20 18 -16 3 -17 1 -5 -7 13 -10 13 -11 0 -12 -8 -1 -18 -1 -22 0 -12
2 -10 -5 21 -56 16 -26 48 -81 71 -121 25 -43 46 -70 52 -66 7 4 8 2 4 -5 -10
-15 52 -123 66 -115 6 4 8 2 4 -4 -3 -6 11 -40 31 -77 56 -97 72 -129 67 -134
-5 -5 -138 -34 -331 -72 -62 -12 -111 -25 -109 -28 2 -3 -12 -6 -32 -7 -21 0
-93 -13 -162 -28 -69 -15 -159 -34 -200 -43 -41 -8 -91 -19 -110 -23 -19 -4
-91 -20 -160 -34 -182 -37 -300 -62 -430 -93 -128 -30 -130 -27 30 -58 41 -8
152 -31 245 -50 94 -20 179 -38 190 -41 11 -2 56 -13 100 -23 44 -11 130 -29
190 -41 61 -12 152 -30 203 -41 50 -10 136 -28 190 -39 53 -12 115 -25 137
-30 22 -5 85 -19 140 -31 55 -11 104 -25 109 -30 5 -5 -2 -25 -18 -48 -16 -23
-25 -45 -20 -52 4 -7 3 -10 -3 -6 -12 8 -46 -61 -37 -75 4 -7 2 -8 -4 -4 -7 4
-21 -13 -37 -44 -14 -27 -22 -50 -18 -50 4 0 -1 -6 -12 -13 -12 -9 -15 -19
-10 -28 5 -8 5 -11 0 -7 -11 10 -88 -120 -79 -134 5 -7 3 -8 -6 -3 -10 6 -12
4 -7 -9 4 -9 3 -15 -2 -12 -11 7 -23 -22 -14 -36 3 -6 2 -8 -3 -5 -6 3 -15 -3
-22 -13 -17 -28 10 -47 44 -31 14 6 22 16 19 21 -3 5 0 8 7 5 16 -6 111 53
103 64 -6 11 23 23 36 15 12 -7 51 21 41 31 -4 5 -1 5 6 1 13 -7 132 60 132
75 0 5 7 5 17 2 12 -5 14 -3 8 7 -6 10 -4 12 8 7 11 -4 17 -1 17 8 0 8 6 12
14 9 13 -5 80 29 72 37 -2 2 8 5 24 6 25 2 29 -2 39 -42 6 -24 11 -55 11 -69
0 -14 5 -26 11 -26 5 0 7 -5 4 -10 -4 -6 1 -43 10 -83 9 -39 19 -85 22 -102 5
-32 52 -255 103 -495 17 -80 47 -219 67 -310 19 -91 41 -194 49 -230 23 -112
33 -145 41 -147 5 -2 7 -18 5 -36 -2 -17 3 -40 10 -50 13 -17 18 1 52 155 21
95 46 207 56 248 11 41 21 89 24 105 3 17 17 84 31 150 14 66 30 143 35 170 5
28 16 75 24 105 8 30 19 80 25 110 5 30 24 122 41 203 16 82 28 153 24 158 -3
5 -1 9 4 9 5 0 17 45 27 100 20 110 23 112 85 70 59 -39 161 -91 170 -85 6 4
9 2 8 -4 -3 -10 224 -151 242 -151 6 0 10 -4 10 -10 0 -18 20 -11 21 8 0 16 1
16 7 -1 6 -15 10 -16 25 -5 19 14 14 53 -6 41 -6 -3 -7 -1 -3 5 10 16 -12 54
-26 46 -6 -4 -8 -3 -5 4 4 5 -18 56 -48 113 -30 56 -55 104 -55 106 0 15 -53
82 -61 77 -6 -3 -10 2 -9 12 4 33 0 45 -10 39 -6 -3 -7 1 -4 9 4 10 1 16 -8
16 -8 0 -15 6 -15 13 0 7 -3 24 -6 39 -8 29 -5 30 63 43 19 4 73 16 120 26
222 52 272 63 370 84 41 8 138 28 215 45 77 16 156 31 175 34 103 16 273 60
264 69 -5 4 -1 5 7 2 9 -3 79 8 155 26 77 17 166 37 199 44 60 12 60 12 25 19
-19 4 -100 23 -179 42 -79 20 -150 33 -157 30 -7 -3 -14 -1 -16 4 -2 5 -52 19
-113 31 -60 12 -114 22 -120 24 -77 16 -88 17 -96 4 -7 -11 -9 -11 -9 3 0 12
-15 19 -57 28 -32 6 -67 13 -78 16 -106 25 -212 43 -233 38 -22 -5 -24 -3 -12
6 12 10 11 11 -7 7 -13 -3 -23 -1 -23 5 0 6 -13 8 -29 6 -17 -2 -28 -1 -26 2
2 4 -31 14 -73 23 -42 8 -120 25 -172 37 -52 12 -119 27 -148 33 -49 10 -53
13 -47 34 3 13 21 48 40 77 21 33 33 62 30 76 -3 17 0 20 12 16 11 -4 14 -2 9
9 -3 9 0 15 7 15 8 0 21 15 30 33 19 37 46 85 100 175 20 35 34 68 31 74 -5 7
-2 8 6 3 10 -6 12 -4 7 9 -4 10 -1 19 8 22 19 8 19 21 1 40 -13 12 -19 12 -45
-4 -17 -9 -31 -22 -31 -29 0 -7 -7 -10 -17 -6 -12 5 -14 3 -8 -7 6 -9 4 -11
-4 -5 -16 9 -62 -15 -54 -28 4 -6 1 -7 -6 -2 -16 9 -62 -15 -54 -28 3 -6 1 -7
-5 -3 -16 9 -102 -42 -102 -61 0 -8 -4 -11 -10 -8 -5 3 -10 1 -10 -4 0 -6 -7
-11 -15 -11 -8 0 -15 -4 -15 -8 0 -5 -10 -8 -22 -8 -14 1 -22 -4 -20 -12 1 -8
-2 -11 -8 -7 -6 4 -40 -12 -76 -34 -43 -27 -66 -37 -69 -28 -4 15 -26 115 -60
277 -14 69 -33 154 -41 190 -8 36 -16 75 -19 88 -2 13 -6 31 -9 40 -3 9 -8 33
-11 52 -6 41 -34 171 -76 355 -41 185 -119 544 -126 583 -8 44 -19 48 -26 9z
m50 -869 c23 -95 54 -228 69 -295 15 -67 31 -120 36 -117 4 3 5 -1 3 -8 -3 -8
10 -92 29 -188 60 -303 69 -330 102 -330 14 0 114 50 124 61 3 3 20 14 38 23
17 9 32 21 32 27 0 6 4 8 9 5 4 -3 30 8 56 25 26 16 49 28 52 26 2 -3 -6 -21
-17 -40 -12 -20 -18 -42 -14 -48 4 -7 3 -9 -4 -5 -12 7 -94 -135 -89 -155 2
-8 2 -10 -1 -6 -2 5 -15 -10 -29 -33 -14 -23 -23 -43 -21 -44 9 -9 371 -94
513 -121 22 -5 47 -9 54 -11 8 -2 44 -10 80 -18 37 -8 109 -24 161 -36 52 -11
144 -33 205 -47 l109 -27 -104 -21 c-58 -13 -133 -28 -167 -35 -35 -7 -60 -16
-57 -21 3 -5 -1 -6 -9 -4 -18 7 -321 -54 -325 -65 -2 -5 -10 -6 -19 -3 -11 4
-14 3 -9 -6 6 -8 1 -10 -17 -6 -13 4 -42 2 -64 -4 -22 -6 -53 -13 -69 -15 -16
-2 -69 -14 -119 -25 -49 -12 -102 -24 -117 -27 -16 -4 -28 -10 -28 -14 0 -5
-3 -15 -6 -23 -3 -8 6 -26 21 -41 15 -15 20 -26 13 -26 -8 0 -9 -3 -3 -8 6 -4
11 -12 12 -19 2 -11 56 -109 95 -171 22 -36 18 -53 -8 -32 -13 12 -17 11 -26
-1 -8 -12 -9 -12 -5 1 2 9 -13 25 -40 42 -24 16 -46 28 -49 28 -3 0 -19 9 -35
21 -16 11 -33 17 -39 14 -5 -3 -10 0 -10 7 0 16 -81 61 -91 51 -11 -12 -76
-293 -114 -488 -8 -44 -38 -174 -65 -290 -27 -115 -54 -236 -60 -267 -6 -32
-16 -58 -21 -58 -5 0 -9 3 -9 6 0 4 -11 57 -24 118 -14 61 -32 146 -41 188
-10 43 -20 76 -23 74 -4 -2 -8 17 -9 43 -2 45 -23 151 -77 386 -14 61 -27 121
-30 135 -22 128 -29 148 -52 145 -30 -3 -90 -40 -87 -53 2 -7 -4 -9 -14 -5
-10 4 -14 2 -10 -4 5 -7 -1 -9 -15 -6 -19 4 -20 3 -8 -6 13 -10 13 -11 0 -12
-30 -3 -36 -5 -97 -37 -35 -18 -63 -27 -63 -22 0 6 31 71 69 145 38 73 68 141
67 151 -4 24 -44 36 -254 80 -97 20 -180 38 -184 41 -5 2 -8 -2 -8 -9 0 -10
-2 -10 -8 -1 -9 15 -478 116 -504 109 -10 -2 -18 -1 -18 3 0 4 -25 13 -56 20
-31 7 -52 16 -48 20 11 9 363 91 504 117 14 3 26 9 28 14 2 4 11 6 21 3 10 -2
51 3 92 11 41 9 138 29 217 46 79 16 150 37 158 45 9 8 20 13 25 9 16 -10 48
6 42 21 -3 8 -10 12 -16 8 -6 -3 -7 -1 -3 5 8 13 -25 82 -48 101 -8 7 -12 20
-9 28 5 12 3 14 -7 8 -9 -5 -11 -4 -6 3 9 15 -18 55 -29 44 -5 -4 -5 -1 -1 5
8 14 -22 73 -37 73 -4 0 -6 4 -2 9 3 5 1 12 -5 16 -24 15 -7 24 19 10 23 -11
31 -12 34 -2 3 7 6 6 6 -5 1 -15 34 -37 177 -114 99 -53 96 -56 139 138 20 92
33 173 29 179 -4 8 -3 9 4 5 8 -4 12 0 12 11 0 10 16 90 35 178 33 149 73 344
80 390 1 11 8 38 14 60 5 22 11 57 13 78 1 20 5 37 8 37 4 0 25 -78 47 -172z
m-537 -1122 c0 -2 -7 -7 -16 -10 -8 -3 -12 -2 -9 4 6 10 25 14 25 6z m2010
-86 c0 -5 -4 -10 -9 -10 -6 0 -13 5 -16 10 -3 6 1 10 9 10 9 0 16 -4 16 -10z
m-2343 -316 c-3 -3 -12 -4 -19 -1 -8 3 -5 6 6 6 11 1 17 -2 13 -5z m516 -509
c-3 -9 -8 -14 -10 -11 -3 3 -2 9 2 15 9 16 15 13 8 -4z"/>
<path d="M5351 10539 c1 -19 6 -63 13 -98 11 -62 12 -65 45 -74 19 -4 43 -6
54 -3 10 2 16 2 13 -1 -4 -4 29 -18 71 -33 226 -75 457 -221 611 -384 29 -31
58 -53 64 -50 6 4 8 2 5 -3 -4 -6 16 -39 45 -74 137 -170 251 -399 297 -596
14 -57 14 -57 120 -69 49 -5 65 -4 72 7 11 17 12 32 2 26 -5 -3 -9 12 -9 34
-3 53 -72 269 -89 275 -7 3 -12 11 -9 18 3 7 -16 57 -42 111 -33 69 -49 94
-55 84 -7 -12 -9 -11 -10 1 -1 8 -1 18 0 23 0 4 -3 7 -9 7 -5 0 -7 6 -4 14 3
8 -3 20 -13 27 -10 8 -27 32 -38 53 -26 51 -75 112 -87 108 -5 -1 -7 1 -4 6 8
13 -54 83 -66 76 -7 -4 -8 -2 -4 4 9 15 -139 161 -151 149 -5 -6 -23 6 -51 36
-61 64 -66 67 -74 55 -6 -10 -8 -10 -8 0 0 6 -8 12 -17 12 -15 0 -16 2 -3 10
12 8 12 10 -3 16 -9 3 -24 4 -32 0 -14 -5 -20 6 -16 28 1 5 -5 6 -14 2 -9 -3
-13 -2 -10 4 8 13 -30 31 -52 24 -13 -4 -15 -3 -5 4 20 14 -121 81 -312 148
-77 26 -90 29 -81 14 3 -5 1 -10 -4 -10 -6 0 -11 6 -11 14 0 7 -14 16 -32 19
-18 3 -48 9 -65 13 -32 6 -33 6 -32 -27z"/>
<path d="M4646 10553 c-11 -3 -26 -11 -33 -19 -8 -7 -20 -11 -28 -8 -33 13
-348 -112 -353 -140 -3 -15 -15 -20 -34 -17 -5 0 -8 -3 -8 -9 0 -5 -6 -7 -14
-4 -20 8 -58 -14 -50 -28 4 -7 2 -8 -5 -4 -14 9 -130 -67 -185 -120 -19 -18
-40 -34 -47 -34 -6 0 -9 -6 -6 -14 3 -7 0 -13 -8 -12 -19 2 -146 -124 -138
-137 3 -5 1 -7 -5 -3 -6 3 -13 2 -17 -4 -3 -5 0 -10 7 -10 7 -1 1 -7 -14 -15
-14 -8 -62 -65 -105 -127 -107 -154 -115 -167 -109 -184 3 -9 1 -12 -4 -9 -13
8 -73 -122 -66 -142 3 -7 -1 -16 -10 -20 -8 -3 -13 -12 -10 -20 3 -8 2 -11 -4
-8 -11 7 -76 -200 -83 -262 l-4 -43 93 0 c52 0 93 3 92 8 -6 23 46 187 98 309
35 80 113 217 149 261 67 81 75 95 63 110 -10 13 -10 14 0 8 8 -5 12 -1 13 11
0 10 3 13 6 6 2 -7 9 -13 15 -13 6 0 8 7 4 15 -6 16 27 57 42 52 5 -1 37 25
73 57 35 32 100 86 144 119 44 32 83 67 87 76 5 12 7 12 7 2 1 -17 16 -5 16
12 0 7 11 11 24 9 18 -2 22 2 17 14 -5 12 -2 15 9 10 9 -3 37 5 63 18 57 28
215 88 297 113 33 9 64 24 69 31 7 12 10 12 17 1 6 -10 9 -3 9 21 0 19 3 59 7
88 5 48 4 52 -12 46 -13 -5 -16 -4 -11 4 7 12 -20 14 -58 5z m-276 -113 c0 -5
-8 -10 -17 -10 -15 0 -16 2 -3 10 19 12 20 12 20 0z m-360 -394 c0 -3 -4 -8
-10 -11 -5 -3 -10 -1 -10 4 0 6 5 11 10 11 6 0 10 -2 10 -4z m-400 -236 c0 -5
-4 -10 -10 -10 -5 0 -10 5 -10 10 0 6 5 10 10 10 6 0 10 -4 10 -10z"/>
<path d="M3310 8517 c0 -44 69 -269 80 -262 5 3 6 -4 3 -15 -3 -11 0 -20 6
-20 5 0 8 -6 5 -14 -5 -14 109 -255 125 -266 5 -3 12 -15 16 -28 4 -14 12 -21
20 -18 12 4 19 -9 30 -50 5 -19 89 -131 137 -181 86 -92 216 -205 235 -205 4
-1 14 -9 20 -18 31 -44 321 -207 349 -196 8 3 13 2 10 -3 -7 -11 22 -23 36
-14 6 3 8 1 5 -4 -10 -17 186 -79 308 -99 l37 -6 -7 59 c-9 85 -15 117 -23
124 -13 12 -67 26 -94 25 -14 -1 -25 2 -22 5 2 4 -10 11 -28 14 -17 4 -64 21
-104 37 -41 16 -79 26 -86 22 -7 -4 -10 -4 -6 1 4 4 -29 29 -75 55 -45 25 -99
57 -121 69 -21 12 -45 20 -53 17 -8 -3 -11 -1 -8 4 3 6 1 10 -5 10 -6 0 -18 7
-26 15 -9 9 -11 15 -4 15 6 0 8 5 5 11 -4 6 -14 8 -22 5 -8 -3 -12 -2 -9 3 7
11 -104 107 -118 103 -6 -2 -8 0 -3 4 9 10 -43 65 -55 58 -5 -3 -7 0 -6 8 2 7
-3 12 -10 10 -8 -1 -11 2 -8 6 3 5 -4 20 -15 33 -12 13 -32 37 -45 52 -13 16
-28 26 -33 22 -6 -3 -9 3 -8 13 1 24 -54 111 -71 112 -7 0 -11 4 -7 9 3 5 -11
41 -30 80 -43 86 -96 224 -120 314 -10 37 -22 70 -26 72 -7 5 -157 35 -171 35
-5 0 -8 -10 -8 -23z m340 -462 c0 -8 -2 -15 -4 -15 -2 0 -6 7 -10 15 -3 8 -1
15 4 15 6 0 10 -7 10 -15z"/>
<path d="M6650 8519 c-25 -4 -48 -5 -51 -3 -9 5 -25 -37 -43 -108 -8 -31 -20
-66 -26 -78 -6 -11 -8 -31 -4 -43 3 -12 3 -18 -2 -14 -10 9 -56 -91 -48 -104
3 -5 -1 -9 -8 -9 -9 0 -9 -3 2 -10 13 -9 13 -10 0 -10 -9 0 -31 -26 -49 -57
-19 -32 -45 -76 -59 -98 -14 -22 -25 -45 -25 -52 0 -7 -4 -10 -8 -7 -4 2 -10
0 -14 -6 -3 -5 -2 -10 4 -10 6 0 8 -7 4 -16 -4 -12 -8 -12 -13 -3 -6 8 -11 6
-19 -8 -5 -11 -7 -24 -3 -28 4 -3 0 -5 -8 -3 -8 2 -14 -3 -12 -10 2 -13 -40
-62 -55 -63 -5 -1 -7 -5 -6 -10 2 -5 -1 -8 -6 -6 -5 1 -9 -2 -9 -6 -1 -5 -10
-17 -21 -26 -11 -10 -17 -22 -13 -26 4 -5 0 -6 -10 -2 -18 6 -52 -25 -41 -38
5 -4 2 -5 -5 -1 -14 9 -125 -81 -116 -95 6 -11 -21 -41 -30 -32 -3 3 -12 0
-21 -7 -8 -7 -15 -9 -15 -6 0 4 -9 2 -20 -4 -11 -6 -17 -16 -14 -22 4 -6 3 -8
-3 -5 -13 8 -129 -51 -126 -64 2 -5 0 -8 -5 -8 -4 1 -10 0 -14 -1 -5 -1 -11
-3 -15 -4 -10 -2 -65 -23 -115 -43 -22 -9 -38 -23 -38 -32 0 -11 -3 -12 -8 -4
-5 8 -30 5 -92 -13 -47 -14 -87 -29 -88 -34 -2 -6 -8 -7 -14 -4 -6 4 -9 -13
-6 -49 1 -30 0 -53 -4 -50 -5 2 -8 -12 -8 -33 l0 -37 53 7 c28 4 53 11 55 16
2 4 12 6 23 3 13 -4 19 -1 17 8 -2 10 7 13 35 12 21 -2 36 1 33 6 -4 5 2 7 12
4 20 -5 102 27 102 39 0 4 7 5 15 2 11 -5 13 -2 9 10 -3 9 -2 16 4 16 6 0 12
-5 14 -10 2 -6 49 13 105 42 66 33 98 55 90 60 -9 6 -8 8 3 9 8 1 18 1 23 0 4
0 7 7 8 17 0 14 2 14 9 -3 5 -11 9 -14 9 -7 1 6 6 12 11 12 6 0 16 4 23 10 7
5 49 37 95 70 108 79 143 111 135 123 -3 6 -2 7 4 4 13 -8 86 67 76 77 -5 4
-1 6 7 4 8 -2 14 3 13 10 -2 6 5 12 15 12 14 0 15 2 2 10 -11 7 -11 10 -2 10
37 0 209 227 197 259 -3 8 -3 12 1 8 9 -9 61 71 79 122 7 20 25 63 40 95 15
33 27 74 28 92 1 18 5 30 10 27 5 -3 8 0 5 8 -3 8 1 19 8 26 6 7 19 47 29 90
9 43 19 86 22 96 5 19 -18 21 -117 6z"/>
<path d="M4813 6070 c-121 -22 -278 -65 -310 -86 -13 -8 -23 -12 -23 -9 0 12
-199 -100 -277 -157 -29 -21 -53 -43 -53 -49 0 -6 -4 -8 -9 -5 -5 4 -21 -7
-34 -24 -14 -16 -30 -30 -36 -30 -5 0 -11 -4 -13 -9 -1 -5 -21 -29 -44 -53
-22 -24 -68 -81 -102 -128 -34 -47 -66 -89 -70 -95 -24 -31 -51 -88 -47 -96 4
-5 2 -9 -4 -9 -32 0 -154 -341 -138 -384 3 -8 2 -16 -3 -18 -16 -5 -29 -156
-25 -288 4 -130 28 -283 45 -288 6 -2 8 -8 5 -12 -14 -23 80 -284 110 -306 8
-6 12 -14 9 -17 -9 -9 80 -141 157 -233 119 -142 314 -308 331 -281 5 8 8 5 8
-7 0 -20 0 -20 15 0 11 14 15 15 14 4 -3 -34 4 -41 81 -80 150 -76 262 -110
435 -135 199 -29 373 -17 598 40 180 46 287 97 448 217 97 72 272 247 265 265
-3 7 1 13 9 13 16 0 101 126 152 225 51 99 86 207 71 217 -10 6 -9 8 4 8 12 0
22 25 42 113 33 140 44 325 27 452 -15 111 -41 216 -51 210 -5 -3 -6 5 -2 17
4 15 2 19 -7 13 -10 -6 -11 -2 -6 15 5 16 4 20 -5 15 -9 -5 -10 -1 -5 15 4 12
3 20 -1 17 -5 -3 -9 11 -10 30 -1 44 -114 269 -133 265 -8 -2 -11 3 -8 12 6
16 -16 40 -27 29 -4 -4 -4 0 -1 9 4 10 -3 23 -20 36 -15 12 -24 25 -21 31 3 5
3 11 -2 13 -4 1 -18 18 -31 36 -12 17 -29 32 -37 32 -8 0 -13 4 -10 9 7 10
-28 43 -37 36 -4 -3 -5 -2 -2 2 7 9 -16 34 -26 27 -5 -3 -8 0 -7 7 2 7 -3 14
-9 15 -7 1 -18 2 -24 3 -5 0 -8 5 -5 9 7 11 -2 22 -56 65 -27 22 -53 35 -59
31 -7 -4 -9 -3 -6 3 9 14 -40 46 -56 37 -7 -4 -9 -4 -5 1 15 16 -98 79 -242
135 -48 19 -76 26 -81 19 -4 -7 -9 -5 -12 5 -4 9 -10 15 -14 14 -4 -1 -21 2
-37 7 -20 5 -31 4 -37 -6 -7 -11 -9 -11 -9 2 0 19 -50 33 -50 15 0 -6 -4 -5
-9 3 -22 34 -311 40 -478 11z m332 -159 c3 -5 19 -12 35 -16 20 -4 30 -13 30
-25 0 -14 5 -18 18 -13 9 3 14 2 10 -2 -5 -5 16 -33 45 -64 67 -71 136 -167
180 -253 19 -37 38 -64 42 -60 4 4 4 -3 1 -15 -4 -12 -2 -31 4 -43 9 -17 7
-22 -17 -31 -27 -10 -140 -41 -196 -53 -15 -4 -25 -11 -22 -16 3 -6 2 -10 -4
-10 -5 0 -11 4 -13 8 -1 5 -31 6 -66 2 -35 -3 -65 -4 -67 -1 -3 2 -5 139 -5
303 0 273 4 322 25 289z m-185 -298 l0 -293 -37 0 c-98 0 -353 60 -353 83 1 7
16 48 34 92 19 44 32 88 31 98 -2 9 1 17 6 17 6 0 7 5 3 12 -4 6 -3 8 3 5 11
-7 26 9 67 73 16 25 58 73 93 107 34 35 63 69 63 78 0 8 5 15 10 15 6 0 10 -5
10 -11 0 -5 5 -7 10 -4 6 4 8 10 6 14 -3 4 8 8 24 8 l30 0 0 -294z m-360 221
c0 -3 -12 -26 -27 -51 -21 -37 -24 -47 -12 -54 11 -8 10 -9 -5 -7 -16 2 -20
-3 -22 -27 -2 -44 -3 -45 -19 -45 -8 0 -15 -8 -15 -17 0 -16 -2 -16 -11 -3 -9
12 -10 11 -6 -8 3 -12 2 -20 -3 -17 -8 5 -25 -27 -55 -101 -13 -34 -21 -42
-41 -40 -13 0 -24 4 -24 7 0 4 -29 23 -65 44 -84 49 -98 65 -87 96 5 13 12 23
16 22 13 -6 22 -2 54 26 17 16 32 34 32 40 0 7 5 9 10 6 6 -4 27 5 46 20 32
24 209 114 227 115 4 0 7 -3 7 -6z m971 -29 c38 -20 74 -33 80 -30 5 4 8 2 7
-3 -2 -5 38 -37 87 -70 86 -59 145 -106 145 -116 0 -6 -183 -112 -206 -120
-16 -5 -24 6 -47 64 -17 43 -33 68 -39 64 -6 -4 -8 -2 -4 4 9 14 -14 62 -30
62 -8 0 -11 6 -7 16 3 10 0 22 -8 28 -8 6 -14 18 -14 26 0 8 -6 14 -13 12 -7
-1 -12 5 -10 15 2 10 -2 17 -8 16 -7 -1 -10 6 -7 16 3 10 0 22 -6 25 -14 9
-14 26 -1 26 6 0 42 -16 81 -35z m489 -159 c0 -3 -4 -8 -10 -11 -5 -3 -10 -1
-10 4 0 6 5 11 10 11 6 0 10 -2 10 -4z m-1440 -66 c0 -5 -5 -10 -11 -10 -5 0
-7 5 -4 10 3 6 8 10 11 10 2 0 4 -4 4 -10z m-431 -183 c47 -30 108 -64 134
-77 27 -12 44 -26 38 -29 -13 -8 -67 -277 -76 -376 -7 -79 -16 -149 -19 -152
-1 -2 -108 -4 -237 -5 -264 -3 -239 -12 -226 77 16 112 37 198 68 270 42 102
50 125 43 136 -4 7 -3 10 3 6 5 -4 16 6 24 21 7 15 20 35 28 45 8 9 10 17 5
17 -5 0 -4 4 1 8 6 4 30 33 54 65 29 38 49 56 59 52 8 -3 53 -29 101 -58z
m1831 43 c8 -11 19 -20 26 -20 6 0 11 -6 11 -12 0 -7 21 -46 46 -86 26 -40 47
-77 47 -83 0 -6 7 -9 15 -5 12 4 14 0 9 -21 -5 -20 -4 -24 6 -18 8 5 11 4 7
-2 -4 -6 7 -47 23 -92 34 -91 66 -230 72 -306 l4 -50 -235 3 c-130 1 -239 6
-242 10 -4 4 -10 41 -13 82 -10 122 -60 431 -72 452 -3 4 18 19 46 33 28 14
48 30 45 34 -2 5 3 8 13 7 10 0 16 5 14 13 -2 8 3 11 11 8 8 -3 43 12 78 33
35 21 66 39 69 39 3 1 12 -8 20 -19z m-680 -114 c0 -2 -11 -6 -25 -8 -14 -3
-25 -1 -25 3 0 5 11 9 25 9 14 0 25 -2 25 -4z m-735 -106 c62 -24 175 -46 278
-55 l77 -7 0 -205 0 -204 -262 3 -263 4 0 29 c1 107 29 292 62 408 18 64 12
63 108 27z m973 -22 c10 -41 19 -88 41 -203 5 -27 13 -92 16 -142 l8 -93 -222
-1 c-121 -1 -238 -2 -258 -2 l-38 -1 -3 201 -2 200 72 7 c103 10 229 34 290
56 78 27 84 26 96 -22z m-1768 -232 c0 -3 -4 -8 -10 -11 -5 -3 -10 -1 -10 4 0
6 5 11 10 11 6 0 10 -2 10 -4z m-8 -51 c-2 -14 -6 -25 -8 -25 -2 0 -4 11 -4
25 0 14 4 25 9 25 4 0 6 -11 3 -25z m886 -325 c174 0 222 2 223 12 0 10 2 10
6 1 2 -7 13 -13 24 -13 18 0 19 -10 19 -200 l0 -200 -22 -1 c-22 0 -39 -2
-143 -14 -78 -9 -193 -34 -233 -51 -29 -12 -38 -12 -48 -2 -19 20 -64 240 -74
356 -9 111 -6 139 14 123 6 -5 109 -10 234 -11z m1462 6 c47 -2 78 1 82 8 5 8
8 7 8 -1 0 -7 12 -13 26 -13 25 0 26 -1 19 -52 -8 -65 -40 -206 -61 -268 -23
-69 -119 -262 -144 -288 -12 -13 -23 -31 -25 -40 -1 -9 -8 -16 -14 -14 -6 1
-11 -7 -11 -19 0 -11 -4 -18 -9 -14 -5 3 -12 1 -16 -5 -4 -7 -12 -7 -24 0 -10
5 -21 7 -25 5 -3 -3 -4 -2 -1 2 6 8 -56 54 -65 48 -5 -3 -11 2 -14 11 -4 9
-13 14 -22 10 -8 -3 -13 -2 -10 3 3 5 -23 24 -58 42 -63 33 -63 33 -62 75 0
23 4 40 9 37 4 -2 7 -2 7 2 0 3 11 65 24 138 14 73 27 173 31 222 4 50 9 97
11 107 5 17 33 17 344 4z m-1886 -6 c2 -3 7 -34 11 -70 16 -171 44 -327 81
-452 4 -13 -10 -25 -58 -49 -107 -53 -179 -100 -172 -111 4 -7 2 -8 -4 -4 -7
4 -17 4 -23 0 -8 -5 -8 -9 1 -14 8 -5 7 -9 -5 -13 -9 -4 -14 -3 -11 2 8 13
-41 54 -55 45 -9 -5 -10 -2 -6 10 5 11 -2 26 -18 42 -13 13 -25 27 -25 29 0 3
0 11 0 18 0 8 -4 7 -10 -3 -9 -15 -11 -12 -14 20 -1 8 -16 44 -33 80 -17 36
-44 99 -59 140 -15 41 -35 81 -43 88 -9 8 -10 11 -3 7 7 -4 12 0 12 10 0 10
-5 13 -12 9 -7 -4 -8 -3 -4 5 4 7 3 33 -3 59 -14 62 -23 141 -17 150 5 8 462
9 470 2z m1373 -88 c-7 -89 -50 -330 -66 -368 l-9 -21 -112 28 c-61 15 -160
33 -220 39 l-110 13 0 198 c0 176 2 198 17 201 9 2 126 2 261 0 l245 -3 -6
-87z m104 -295 c-10 -9 -11 -8 -5 6 3 10 9 15 12 12 3 -3 0 -11 -7 -18z m-781
-478 c0 -197 -3 -289 -11 -289 -5 0 -30 11 -54 24 -24 14 -46 22 -50 18 -4 -4
-5 0 -3 8 2 9 -4 14 -14 14 -10 -1 -17 1 -16 5 1 3 -2 14 -6 24 -10 21 -30 23
-22 1 3 -9 2 -12 -5 -9 -6 4 -8 14 -5 22 7 17 -12 46 -24 38 -4 -3 -7 3 -6 13
0 10 -5 16 -14 14 -8 -2 -12 -1 -8 3 3 4 -16 41 -43 82 -27 42 -49 80 -49 85
0 5 -5 6 -12 2 -6 -4 -8 -3 -5 3 4 6 -4 37 -17 69 -39 98 -40 104 -17 104 15
0 19 5 15 18 -4 12 -3 13 3 4 7 -9 27 -8 91 9 80 20 235 39 260 31 9 -3 12
-71 12 -293z m268 291 c84 -11 272 -56 284 -68 3 -4 0 -25 -8 -47 -7 -22 -12
-46 -9 -52 2 -7 0 -12 -6 -10 -6 1 -25 -25 -43 -59 -18 -34 -53 -90 -78 -125
-25 -35 -43 -71 -41 -79 3 -10 2 -11 -4 -3 -6 8 -25 -5 -63 -43 -45 -47 -113
-94 -135 -94 -3 0 -5 133 -5 295 0 233 3 295 13 295 7 0 50 -5 95 -10z m-988
-60 c0 -5 -2 -10 -4 -10 -3 0 -8 5 -11 10 -3 6 -1 10 4 10 6 0 11 -4 11 -10z
m191 -117 c40 -95 103 -219 137 -271 19 -29 33 -55 30 -57 -11 -11 -138 52
-243 121 -103 68 -182 134 -158 134 5 0 22 11 37 25 14 13 26 22 26 20 0 -2
30 14 68 35 37 21 71 38 75 39 4 1 17 -20 28 -46z m1315 2 c36 -20 70 -32 76
-29 7 4 8 2 4 -4 -4 -7 -3 -12 2 -12 5 0 21 -9 36 -21 l26 -21 -31 -26 c-18
-15 -41 -35 -52 -46 -46 -44 -287 -176 -321 -176 -9 0 -7 28 3 32 13 5 96 155
138 251 21 48 41 87 46 87 4 0 37 -16 73 -35z m-266 -59 c0 -3 -4 -8 -10 -11
-5 -3 -10 -1 -10 4 0 6 5 11 10 11 6 0 10 -2 10 -4z"/>
</g>
</svg>
